<?xml version="1.0" encoding="iso-8859-1"?>
<!-- Uploaded to: SVG Repo, www.svgrepo.com, Generator: SVG Repo Mixer Tools -->
<svg version="1.1" id="Layer_1" xmlns="http://www.w3.org/2000/svg" xmlns:xlink="http://www.w3.org/1999/xlink" 
	 viewBox="0 0 512 512" xml:space="preserve">
<polygon style="fill:#D80027;" points="73.143,438.857 256,420.571 438.857,438.857 438.857,512 73.143,512 "/>
<polygon style="fill:#A2001D;" points="256,420.571 438.857,438.857 438.857,512 256,512 "/>
<polygon style="fill:#D80027;" points="384,146.286 256,128 128,146.286 73.143,201.143 73.143,256 256,274.286 438.857,256 
	438.857,201.143 "/>
<polygon style="fill:#A2001D;" points="384,146.286 256,128 256,274.286 438.857,256 438.857,201.143 "/>
<polygon style="fill:#E4F1FB;" points="256,256 73.143,256 73.143,438.857 256,438.857 438.857,438.857 438.857,256 "/>
<rect x="256" y="256" style="fill:#C9E3F7;" width="182.857" height="182.857"/>
<rect x="128" y="310.857" style="fill:#78B9EB;" width="256" height="73.143"/>
<rect x="256" y="310.857" style="fill:#5A8BB0;" width="128" height="73.143"/>
<polygon style="fill:#78B9EB;" points="384,146.286 128,146.286 128,73.143 256,54.857 384,73.143 "/>
<polygon style="fill:#5A8BB0;" points="384,146.286 256,146.286 256,54.857 384,73.143 "/>
<rect x="128" style="fill:#AED5F3;" width="256" height="73.143"/>
<rect x="256" style="fill:#93C7EF;" width="128" height="73.143"/>
</svg>